<svg xmlns="http://www.w3.org/2000/svg" xmlns:xlink="http://www.w3.org/1999/xlink" width="1366" zoomAndPan="magnify" viewBox="0 0 1024.5 337.499995" height="450" preserveAspectRatio="xMidYMid meet" version="1.0"><defs><g/><clipPath id="574ae57d0f"><rect x="0" width="455" y="0" height="237"/></clipPath><clipPath id="450b7905ae"><rect x="0" width="928" y="0" height="45"/></clipPath><clipPath id="3d92bac88f"><path d="M 471.367188 62.027344 L 1007 62.027344 L 1007 217.25 L 471.367188 217.25 Z M 471.367188 62.027344 " clip-rule="nonzero"/></clipPath><clipPath id="6d74d2c778"><path d="M 509.734375 62.027344 L 1006.902344 62.027344 L 968.535156 217.25 L 471.367188 217.25 Z M 509.734375 62.027344 " clip-rule="nonzero"/></clipPath><clipPath id="40f0cb5b0a"><path d="M 0.367188 0.0273438 L 536 0.0273438 L 536 155.25 L 0.367188 155.25 Z M 0.367188 0.0273438 " clip-rule="nonzero"/></clipPath><clipPath id="23da9f7604"><path d="M 38.734375 0.0273438 L 535.902344 0.0273438 L 497.535156 155.25 L 0.367188 155.25 Z M 38.734375 0.0273438 " clip-rule="nonzero"/></clipPath><clipPath id="486ea80485"><rect x="0" width="536" y="0" height="156"/></clipPath><clipPath id="73e86ace63"><rect x="0" width="493" y="0" height="237"/></clipPath></defs><g transform="matrix(1, 0, 0, 1, 12, 23)"><g clip-path="url(#574ae57d0f)"><g fill="#000000" fill-opacity="1"><g transform="translate(10.526676, 183.428646)"><g><path d="M 22.703125 1.28125 C 10.234375 1.28125 1.945312 -1.804688 -2.15625 -7.984375 C -6.257812 -14.171875 -6.710938 -24.140625 -3.515625 -37.890625 L -0.484375 -51.3125 L 26.53125 -51.3125 L 22.53125 -34.21875 C 20.9375 -27.394531 22.328125 -23.984375 26.703125 -23.984375 C 29.148438 -23.984375 31.039062 -24.703125 32.375 -26.140625 C 33.707031 -27.578125 34.742188 -30 35.484375 -33.40625 C 36.554688 -37.882812 36.878906 -41.585938 36.453125 -44.515625 C 36.023438 -47.453125 35.222656 -49.90625 34.046875 -51.875 C 32.878906 -53.851562 30.640625 -56.921875 27.328125 -61.078125 L 18.21875 -72.90625 C 11.1875 -81.851562 8.894531 -91.765625 11.34375 -102.640625 C 14.007812 -114.359375 18.753906 -123.28125 25.578125 -129.40625 C 32.398438 -135.539062 40.976562 -138.609375 51.3125 -138.609375 C 63.675781 -138.609375 71.828125 -135.332031 75.765625 -128.78125 C 79.710938 -122.226562 80.035156 -111.96875 76.734375 -98 L 48.765625 -98 L 50.84375 -107.4375 C 51.257812 -109.25 51.09375 -110.6875 50.34375 -111.75 C 49.601562 -112.8125 48.328125 -113.34375 46.515625 -113.34375 C 44.390625 -113.34375 42.632812 -112.753906 41.25 -111.578125 C 39.863281 -110.410156 38.957031 -108.816406 38.53125 -106.796875 C 37.457031 -102.316406 38.945312 -97.679688 43 -92.890625 L 55.46875 -77.546875 C 58.351562 -73.921875 60.644531 -70.476562 62.34375 -67.21875 C 64.050781 -63.96875 65.144531 -60.128906 65.625 -55.703125 C 66.101562 -51.285156 65.648438 -46.039062 64.265625 -39.96875 C 61.066406 -26.4375 56.191406 -16.175781 49.640625 -9.1875 C 43.085938 -2.207031 34.109375 1.28125 22.703125 1.28125 Z M 22.703125 1.28125 "/></g></g></g><g fill="#000000" fill-opacity="1"><g transform="translate(88.224275, 183.428646)"><g><path d="M -9.59375 0 L 22.0625 -137.328125 L 63.953125 -137.328125 L 56.109375 -53.5625 L 86.96875 -137.328125 L 129.171875 -137.328125 L 97.515625 0 L 72.421875 0 L 95.28125 -98.96875 L 56.59375 0 L 31.96875 0 L 38.046875 -98.96875 L 15.1875 0 Z M -9.59375 0 "/></g></g></g><g fill="#000000" fill-opacity="1"><g transform="translate(211.484923, 183.428646)"><g><path d="M -13.265625 0 L 31.65625 -137.328125 L 78.171875 -137.328125 L 59.625 0 L 33.5625 0 L 36.765625 -22.21875 L 20.140625 -22.21875 L 13.421875 0 Z M 27.328125 -44.125 L 39.8125 -44.125 L 49.71875 -113.984375 L 48.4375 -113.984375 Z M 27.328125 -44.125 "/></g></g></g><g fill="#000000" fill-opacity="1"><g transform="translate(293.019398, 183.428646)"><g><path d="M 22.0625 -137.328125 L 64.265625 -137.328125 C 70.984375 -137.328125 75.832031 -135.804688 78.8125 -132.765625 C 81.800781 -129.734375 83.296875 -125.472656 83.296875 -119.984375 C 83.296875 -114.492188 82.332031 -107.488281 80.40625 -98.96875 C 78.601562 -91.1875 76.179688 -85.109375 73.140625 -80.734375 C 70.097656 -76.367188 65.859375 -73.332031 60.421875 -71.625 C 64.367188 -70.769531 66.898438 -68.691406 68.015625 -65.390625 C 69.140625 -62.085938 69.0625 -57.609375 67.78125 -51.953125 L 55.46875 0 L 28.609375 0 L 40.921875 -53.71875 C 41.878906 -57.550781 41.71875 -60 40.4375 -61.0625 C 39.164062 -62.132812 36.554688 -62.671875 32.609375 -62.671875 L 18.21875 0 L -9.59375 0 Z M 44.921875 -86.5 C 48.753906 -86.5 51.628906 -90.65625 53.546875 -98.96875 C 54.398438 -102.582031 54.851562 -105.296875 54.90625 -107.109375 C 54.96875 -108.921875 54.648438 -110.171875 53.953125 -110.859375 C 53.265625 -111.554688 52.117188 -111.90625 50.515625 -111.90625 L 44.125 -111.90625 L 38.359375 -86.5 Z M 44.921875 -86.5 "/></g></g></g><g fill="#000000" fill-opacity="1"><g transform="translate(373.274915, 183.428646)"><g><path d="M 2.078125 0 L 27.65625 -110.953125 L 11.34375 -110.953125 L 17.421875 -137.328125 L 77.546875 -137.328125 L 71.46875 -110.953125 L 55.15625 -110.953125 L 29.578125 0 Z M 2.078125 0 "/></g></g></g></g></g><g transform="matrix(1, 0, 0, 1, 30, 239)"><g clip-path="url(#450b7905ae)"><g fill="#545454" fill-opacity="1"><g transform="translate(4.784962, 32.513004)"><g><path d="M 9.84375 0.5625 C 7.707031 0.5625 5.703125 0.332031 3.828125 -0.125 C 1.953125 -0.582031 0.40625 -1.1875 -0.8125 -1.9375 L 2.390625 -8.046875 C 5.035156 -6.523438 7.800781 -5.765625 10.6875 -5.765625 C 11.75 -5.765625 12.5625 -5.894531 13.125 -6.15625 C 13.6875 -6.414062 13.96875 -6.765625 13.96875 -7.203125 C 13.96875 -7.628906 13.675781 -7.96875 13.09375 -8.21875 C 12.519531 -8.476562 11.613281 -8.765625 10.375 -9.078125 C 8.726562 -9.492188 7.363281 -9.921875 6.28125 -10.359375 C 5.207031 -10.796875 4.265625 -11.460938 3.453125 -12.359375 C 2.648438 -13.265625 2.25 -14.457031 2.25 -15.9375 C 2.25 -17.789062 2.742188 -19.410156 3.734375 -20.796875 C 4.734375 -22.191406 6.171875 -23.269531 8.046875 -24.03125 C 9.929688 -24.800781 12.148438 -25.1875 14.703125 -25.1875 C 16.523438 -25.1875 18.226562 -25.003906 19.8125 -24.640625 C 21.394531 -24.273438 22.765625 -23.753906 23.921875 -23.078125 L 20.921875 -17.015625 C 19.960938 -17.628906 18.898438 -18.085938 17.734375 -18.390625 C 16.578125 -18.703125 15.390625 -18.859375 14.171875 -18.859375 C 13.023438 -18.859375 12.132812 -18.691406 11.5 -18.359375 C 10.863281 -18.035156 10.546875 -17.648438 10.546875 -17.203125 C 10.546875 -16.753906 10.832031 -16.398438 11.40625 -16.140625 C 11.988281 -15.878906 12.9375 -15.597656 14.25 -15.296875 C 15.84375 -14.921875 17.179688 -14.519531 18.265625 -14.09375 C 19.359375 -13.675781 20.300781 -13.019531 21.09375 -12.125 C 21.894531 -11.238281 22.296875 -10.066406 22.296875 -8.609375 C 22.296875 -6.785156 21.789062 -5.179688 20.78125 -3.796875 C 19.78125 -2.410156 18.335938 -1.335938 16.453125 -0.578125 C 14.578125 0.179688 12.375 0.5625 9.84375 0.5625 Z M 9.84375 0.5625 "/></g></g></g><g fill="#545454" fill-opacity="1"><g transform="translate(54.490531, 32.513004)"><g><path d="M 11.890625 -18.359375 L 11.328125 -15.46875 L 21.734375 -15.46875 L 20.546875 -9.5 L 10.09375 -9.5 L 9.46875 -6.265625 L 21.8125 -6.265625 L 20.546875 0 L 0.078125 0 L 5 -24.625 L 25 -24.625 L 23.734375 -18.359375 Z M 11.890625 -18.359375 "/></g></g></g><g fill="#545454" fill-opacity="1"><g transform="translate(104.758942, 32.513004)"><g><path d="M 5 -24.625 L 13.296875 -24.625 L 9.671875 -6.4375 L 20.78125 -6.4375 L 19.484375 0 L 0.078125 0 Z M 5 -24.625 "/></g></g></g><g fill="#545454" fill-opacity="1"><g transform="translate(153.057435, 32.513004)"><g><path d="M 12.03125 -18.359375 L 11.1875 -14.140625 L 21.453125 -14.140625 L 20.1875 -7.875 L 9.953125 -7.875 L 8.375 0 L 0.078125 0 L 5 -24.625 L 25 -24.625 L 23.734375 -18.359375 Z M 12.03125 -18.359375 "/></g></g></g><g fill="#545454" fill-opacity="1"><g transform="translate(202.305729, 32.513004)"><g/></g></g><g fill="#545454" fill-opacity="1"><g transform="translate(239.452941, 32.513004)"><g><path d="M 5 -24.625 L 16.109375 -24.625 C 18.691406 -24.625 20.925781 -24.203125 22.8125 -23.359375 C 24.695312 -22.515625 26.144531 -21.304688 27.15625 -19.734375 C 28.164062 -18.160156 28.671875 -16.304688 28.671875 -14.171875 C 28.671875 -11.335938 28.007812 -8.847656 26.6875 -6.703125 C 25.375 -4.554688 23.550781 -2.898438 21.21875 -1.734375 C 18.894531 -0.578125 16.242188 0 13.265625 0 L 0.078125 0 Z M 13.546875 -6.46875 C 15.671875 -6.46875 17.328125 -7.140625 18.515625 -8.484375 C 19.703125 -9.835938 20.296875 -11.570312 20.296875 -13.6875 C 20.296875 -15.113281 19.851562 -16.210938 18.96875 -16.984375 C 18.09375 -17.765625 16.820312 -18.15625 15.15625 -18.15625 L 12 -18.15625 L 9.671875 -6.46875 Z M 13.546875 -6.46875 "/></g></g></g><g fill="#545454" fill-opacity="1"><g transform="translate(295.103512, 32.513004)"><g><path d="M 26.28125 -16.53125 C 26.28125 -14.351562 25.695312 -12.445312 24.53125 -10.8125 C 23.375 -9.1875 21.738281 -7.972656 19.625 -7.171875 L 23.734375 0 L 15.125 0 L 11.640625 -6.1875 L 9.609375 -6.1875 L 8.375 0 L 0.078125 0 L 5 -24.625 L 16.03125 -24.625 C 19.269531 -24.625 21.785156 -23.910156 23.578125 -22.484375 C 25.378906 -21.066406 26.28125 -19.082031 26.28125 -16.53125 Z M 17.875 -15.71875 C 17.875 -17.382812 16.835938 -18.21875 14.765625 -18.21875 L 12 -18.21875 L 10.828125 -12.453125 L 14.25 -12.453125 C 15.394531 -12.453125 16.285156 -12.738281 16.921875 -13.3125 C 17.554688 -13.882812 17.875 -14.6875 17.875 -15.71875 Z M 17.875 -15.71875 "/></g></g></g><g fill="#545454" fill-opacity="1"><g transform="translate(347.904723, 32.513004)"><g><path d="M 5 -24.625 L 13.296875 -24.625 L 8.375 0 L 0.078125 0 Z M 5 -24.625 "/></g></g></g><g fill="#545454" fill-opacity="1"><g transform="translate(386.810816, 32.513004)"><g><path d="M 31.296875 -24.625 L 15.96875 0 L 7.8125 0 L 2.328125 -24.625 L 10.828125 -24.625 L 13.890625 -10.265625 L 22.796875 -24.625 Z M 31.296875 -24.625 "/></g></g></g><g fill="#545454" fill-opacity="1"><g transform="translate(441.054309, 32.513004)"><g><path d="M 11.890625 -18.359375 L 11.328125 -15.46875 L 21.734375 -15.46875 L 20.546875 -9.5 L 10.09375 -9.5 L 9.46875 -6.265625 L 21.8125 -6.265625 L 20.546875 0 L 0.078125 0 L 5 -24.625 L 25 -24.625 L 23.734375 -18.359375 Z M 11.890625 -18.359375 "/></g></g></g><g fill="#545454" fill-opacity="1"><g transform="translate(491.32272, 32.513004)"><g/></g></g><g fill="#545454" fill-opacity="1"><g transform="translate(528.469932, 32.513004)"><g><path d="M 14.0625 0.5625 C 11.5625 0.5625 9.351562 0.0976562 7.4375 -0.828125 C 5.53125 -1.753906 4.050781 -3.046875 3 -4.703125 C 1.957031 -6.367188 1.4375 -8.285156 1.4375 -10.453125 C 1.4375 -13.304688 2.097656 -15.847656 3.421875 -18.078125 C 4.753906 -20.304688 6.597656 -22.046875 8.953125 -23.296875 C 11.304688 -24.554688 13.984375 -25.1875 16.984375 -25.1875 C 19.359375 -25.1875 21.457031 -24.753906 23.28125 -23.890625 C 25.113281 -23.035156 26.472656 -21.828125 27.359375 -20.265625 L 21.390625 -15.578125 C 20.285156 -17.503906 18.640625 -18.46875 16.453125 -18.46875 C 15.171875 -18.46875 14.023438 -18.148438 13.015625 -17.515625 C 12.003906 -16.878906 11.21875 -15.992188 10.65625 -14.859375 C 10.09375 -13.722656 9.8125 -12.425781 9.8125 -10.96875 C 9.8125 -9.519531 10.273438 -8.351562 11.203125 -7.46875 C 12.128906 -6.59375 13.351562 -6.15625 14.875 -6.15625 C 16.96875 -6.15625 18.796875 -7.101562 20.359375 -9 L 25.25 -4.328125 C 23.820312 -2.566406 22.195312 -1.3125 20.375 -0.5625 C 18.5625 0.1875 16.457031 0.5625 14.0625 0.5625 Z M 14.0625 0.5625 "/></g></g></g><g fill="#545454" fill-opacity="1"><g transform="translate(581.235986, 32.513004)"><g><path d="M 18.015625 -4.296875 L 8.609375 -4.296875 L 6.15625 0 L -2.609375 0 L 13.078125 -24.625 L 21.25 -24.625 L 27.078125 0 L 18.8125 0 Z M 16.84375 -10.265625 L 15.65625 -16.5625 L 12.03125 -10.265625 Z M 16.84375 -10.265625 "/></g></g></g><g fill="#545454" fill-opacity="1"><g transform="translate(636.183039, 32.513004)"><g><path d="M 26.28125 -16.53125 C 26.28125 -14.351562 25.695312 -12.445312 24.53125 -10.8125 C 23.375 -9.1875 21.738281 -7.972656 19.625 -7.171875 L 23.734375 0 L 15.125 0 L 11.640625 -6.1875 L 9.609375 -6.1875 L 8.375 0 L 0.078125 0 L 5 -24.625 L 16.03125 -24.625 C 19.269531 -24.625 21.785156 -23.910156 23.578125 -22.484375 C 25.378906 -21.066406 26.28125 -19.082031 26.28125 -16.53125 Z M 17.875 -15.71875 C 17.875 -17.382812 16.835938 -18.21875 14.765625 -18.21875 L 12 -18.21875 L 10.828125 -12.453125 L 14.25 -12.453125 C 15.394531 -12.453125 16.285156 -12.738281 16.921875 -13.3125 C 17.554688 -13.882812 17.875 -14.6875 17.875 -15.71875 Z M 17.875 -15.71875 "/></g></g></g><g fill="#545454" fill-opacity="1"><g transform="translate(688.98425, 32.513004)"><g/></g></g><g fill="#545454" fill-opacity="1"><g transform="translate(726.131462, 32.513004)"><g><path d="M 29.265625 -24.625 L 24.34375 0 L 16.03125 0 L 17.875 -9.078125 L 10.203125 -9.078125 L 8.375 0 L 0.078125 0 L 5 -24.625 L 13.296875 -24.625 L 11.53125 -15.890625 L 19.203125 -15.890625 L 20.96875 -24.625 Z M 29.265625 -24.625 "/></g></g></g><g fill="#545454" fill-opacity="1"><g transform="translate(781.008111, 32.513004)"><g><path d="M 5 -24.625 L 13.296875 -24.625 L 8.375 0 L 0.078125 0 Z M 5 -24.625 "/></g></g></g><g fill="#545454" fill-opacity="1"><g transform="translate(819.914248, 32.513004)"><g><path d="M 26.28125 -16.53125 C 26.28125 -14.351562 25.695312 -12.445312 24.53125 -10.8125 C 23.375 -9.1875 21.738281 -7.972656 19.625 -7.171875 L 23.734375 0 L 15.125 0 L 11.640625 -6.1875 L 9.609375 -6.1875 L 8.375 0 L 0.078125 0 L 5 -24.625 L 16.03125 -24.625 C 19.269531 -24.625 21.785156 -23.910156 23.578125 -22.484375 C 25.378906 -21.066406 26.28125 -19.082031 26.28125 -16.53125 Z M 17.875 -15.71875 C 17.875 -17.382812 16.835938 -18.21875 14.765625 -18.21875 L 12 -18.21875 L 10.828125 -12.453125 L 14.25 -12.453125 C 15.394531 -12.453125 16.285156 -12.738281 16.921875 -13.3125 C 17.554688 -13.882812 17.875 -14.6875 17.875 -15.71875 Z M 17.875 -15.71875 "/></g></g></g><g fill="#545454" fill-opacity="1"><g transform="translate(872.715459, 32.513004)"><g><path d="M 11.890625 -18.359375 L 11.328125 -15.46875 L 21.734375 -15.46875 L 20.546875 -9.5 L 10.09375 -9.5 L 9.46875 -6.265625 L 21.8125 -6.265625 L 20.546875 0 L 0.078125 0 L 5 -24.625 L 25 -24.625 L 23.734375 -18.359375 Z M 11.890625 -18.359375 "/></g></g></g></g></g><path stroke-linecap="butt" transform="matrix(0.74889, 0, 0, 0.74889, 22.526676, 225.383494)" fill="none" stroke-linejoin="miter" d="M 0.000891569 3.49906 L 1233.847011 3.49906 " stroke="#000000" stroke-width="7" stroke-opacity="1" stroke-miterlimit="4"/><g clip-path="url(#3d92bac88f)"><g clip-path="url(#6d74d2c778)"><g transform="matrix(1, 0, 0, 1, 471, 62)"><g clip-path="url(#486ea80485)"><g clip-path="url(#40f0cb5b0a)"><g clip-path="url(#23da9f7604)"><path fill="#ff1616" d="M 0.367188 0.0273438 L 535.773438 0.0273438 L 535.773438 155.25 L 0.367188 155.25 Z M 0.367188 0.0273438 " fill-opacity="1" fill-rule="nonzero"/></g></g></g></g></g></g><g transform="matrix(1, 0, 0, 1, 491, 24)"><g clip-path="url(#73e86ace63)"><g fill="#ffffff" fill-opacity="1"><g transform="translate(2.317621, 183.278235)"><g><path d="M 0.953125 0 L 17.90625 -137.328125 L 44.765625 -137.328125 L 32.453125 -50.6875 L 60.109375 -137.328125 L 85.6875 -137.328125 L 73.0625 -50.6875 L 100.40625 -137.328125 L 127.578125 -137.328125 L 80.890625 0 L 47.96875 0 L 56.28125 -66.1875 L 34.53125 0 Z M 0.953125 0 "/></g></g></g><g fill="#ffffff" fill-opacity="1"><g transform="translate(119.343222, 183.278235)"><g><path d="M -9.59375 0 L 22.0625 -137.328125 L 49.390625 -137.328125 L 38.046875 -88.25 L 51 -88.25 L 62.34375 -137.328125 L 89.6875 -137.328125 L 58.03125 0 L 30.6875 0 L 45.078125 -62.34375 L 32.125 -62.34375 L 17.75 0 Z M -9.59375 0 "/></g></g></g><g fill="#ffffff" fill-opacity="1"><g transform="translate(202.316439, 183.278235)"><g><path d="M -9.59375 0 L 22.0625 -137.328125 L 77.0625 -137.328125 L 70.984375 -110.796875 L 43.96875 -110.796875 L 37.734375 -84.09375 L 63.625 -84.09375 L 57.71875 -58.1875 L 31.8125 -58.1875 L 24.453125 -26.703125 L 53.234375 -26.703125 L 47.15625 0 Z M -9.59375 0 "/></g></g></g><g fill="#ffffff" fill-opacity="1"><g transform="translate(271.380932, 183.278235)"><g><path d="M -9.59375 0 L 22.0625 -137.328125 L 77.0625 -137.328125 L 70.984375 -110.796875 L 43.96875 -110.796875 L 37.734375 -84.09375 L 63.625 -84.09375 L 57.71875 -58.1875 L 31.8125 -58.1875 L 24.453125 -26.703125 L 53.234375 -26.703125 L 47.15625 0 Z M -9.59375 0 "/></g></g></g><g fill="#ffffff" fill-opacity="1"><g transform="translate(340.445425, 183.278235)"><g><path d="M -9.59375 0 L 22.0625 -137.328125 L 49.5625 -137.328125 L 23.34375 -23.34375 L 51.640625 -23.34375 L 46.203125 0 Z M -9.59375 0 "/></g></g></g><g fill="#ffffff" fill-opacity="1"><g transform="translate(407.111855, 183.278235)"><g><path d="M 22.703125 1.28125 C 10.234375 1.28125 1.945312 -1.804688 -2.15625 -7.984375 C -6.257812 -14.171875 -6.710938 -24.140625 -3.515625 -37.890625 L -0.484375 -51.3125 L 26.53125 -51.3125 L 22.53125 -34.21875 C 20.9375 -27.394531 22.328125 -23.984375 26.703125 -23.984375 C 29.148438 -23.984375 31.039062 -24.703125 32.375 -26.140625 C 33.707031 -27.578125 34.742188 -30 35.484375 -33.40625 C 36.554688 -37.882812 36.878906 -41.585938 36.453125 -44.515625 C 36.023438 -47.453125 35.222656 -49.90625 34.046875 -51.875 C 32.878906 -53.851562 30.640625 -56.921875 27.328125 -61.078125 L 18.21875 -72.90625 C 11.1875 -81.851562 8.894531 -91.765625 11.34375 -102.640625 C 14.007812 -114.359375 18.753906 -123.28125 25.578125 -129.40625 C 32.398438 -135.539062 40.976562 -138.609375 51.3125 -138.609375 C 63.675781 -138.609375 71.828125 -135.332031 75.765625 -128.78125 C 79.710938 -122.226562 80.035156 -111.96875 76.734375 -98 L 48.765625 -98 L 50.84375 -107.4375 C 51.257812 -109.25 51.09375 -110.6875 50.34375 -111.75 C 49.601562 -112.8125 48.328125 -113.34375 46.515625 -113.34375 C 44.390625 -113.34375 42.632812 -112.753906 41.25 -111.578125 C 39.863281 -110.410156 38.957031 -108.816406 38.53125 -106.796875 C 37.457031 -102.316406 38.945312 -97.679688 43 -92.890625 L 55.46875 -77.546875 C 58.351562 -73.921875 60.644531 -70.476562 62.34375 -67.21875 C 64.050781 -63.96875 65.144531 -60.128906 65.625 -55.703125 C 66.101562 -51.285156 65.648438 -46.039062 64.265625 -39.96875 C 61.066406 -26.4375 56.191406 -16.175781 49.640625 -9.1875 C 43.085938 -2.207031 34.109375 1.28125 22.703125 1.28125 Z M 22.703125 1.28125 "/></g></g></g></g></g></svg>